<svg xmlns="http://www.w3.org/2000/svg" viewBox="0 0 320 96">
  <defs>
    <linearGradient id="workspaceLogoBg" x1="18" y1="8" x2="286" y2="104" gradientUnits="userSpaceOnUse">
      <stop offset="0" stop-color="#1E3A8A"/>
      <stop offset="1" stop-color="#38BDF8"/>
    </linearGradient>
    <linearGradient id="workspaceTile" x1="16" y1="16" x2="80" y2="80" gradientUnits="userSpaceOnUse">
      <stop offset="0" stop-color="#020617" stop-opacity="0.18"/>
      <stop offset="1" stop-color="#020617" stop-opacity="0.04"/>
    </linearGradient>
  </defs>
  <rect width="320" height="96" rx="24" fill="url(#workspaceLogoBg)"/>
  <circle cx="288" cy="18" r="28" fill="#EFF6FF" opacity="0.1"/>
  <rect x="16" y="16" width="64" height="64" rx="18" fill="url(#workspaceTile)" stroke="#EFF6FF" stroke-opacity="0.18"/>
  <rect x="28" y="28" width="40" height="40" rx="13" fill="#EFF6FF" opacity="0.96"/>
  <path d="M48 35v26M35 48h26" stroke="#BFDBFE" stroke-linecap="round" stroke-width="3.5"/>
  <path d="M35 57 42 50 49 54 60 42" fill="none" stroke="#1D4ED8" stroke-linecap="round" stroke-linejoin="round" stroke-width="5"/>
  <circle cx="35" cy="57" r="3.8" fill="#93C5FD"/>
  <circle cx="42" cy="50" r="3.8" fill="#60A5FA"/>
  <circle cx="49" cy="54" r="3.8" fill="#2563EB"/>
  <circle cx="60" cy="42" r="4.6" fill="#1D4ED8"/>
  <rect x="56" y="25" width="12" height="12" rx="4.5" fill="#1E40AF"/>
  <path d="M59 31 61.5 33.5 65 29" fill="none" stroke="#EFF6FF" stroke-linecap="round" stroke-linejoin="round" stroke-width="2"/>
  <text x="100" y="57" fill="#F8FAFC" font-family="Avenir Next, Trebuchet MS, sans-serif" font-size="27" font-weight="700">Workspace Governor</text>
</svg>
